<?xml version="1.0" encoding="UTF-8"?>
<svg xmlns="http://www.w3.org/2000/svg" id="Layer_3" data-name="Layer 3" viewBox="0 0 64 64" width="512" height="512"><path d="M62,9H40.777a7.812,7.812,0,0,0-7.605-6H31.414a2.4,2.4,0,0,1-1.707-.708A4.387,4.387,0,0,0,26.586,1H18.828A7.829,7.829,0,0,0,11,8.829v.7a20.067,20.067,0,0,0,1.571,7.748A3.993,3.993,0,0,0,14,25a12,12,0,0,0,6,10.376V38H16A15.017,15.017,0,0,0,1,53v9a1,1,0,0,0,1,1H62a1,1,0,0,0,1-1V10A1,1,0,0,0,62,9ZM13,8.829A5.828,5.828,0,0,1,18.828,3h7.758a2.4,2.4,0,0,1,1.707.708A4.387,4.387,0,0,0,31.414,5h1.758A5.828,5.828,0,0,1,39,10.829a12.5,12.5,0,0,1-1.239,5.389,5.988,5.988,0,0,0-1.152-2.249L32.769,9.36a1,1,0,0,0-1.476-.067A19.359,19.359,0,0,1,17.515,15H17a2.989,2.989,0,0,0-2.585,1.5A18.059,18.059,0,0,1,13,9.528ZM38,19a2,2,0,0,1,0,4ZM12,21a2,2,0,0,1,2-2v4A2,2,0,0,1,12,21Zm4,4V18a1,1,0,0,1,1-1h.515a21.325,21.325,0,0,0,14.4-5.54l3.157,3.79A4,4,0,0,1,36,17.81V25a10,10,0,0,1-20,0ZM32.412,40l3.706,6.673-3.954-.659a1,1,0,0,0-1,.431l-2.355,3.532L31.748,40Zm-12.16,0,2.935,9.977-2.355-3.532a1,1,0,0,0-1-.431l-3.954.659L19.588,40ZM26,37a11.922,11.922,0,0,0,4-.7v2.556l-4,13.6-4-13.6V36.3A11.922,11.922,0,0,0,26,37ZM3,53A13.015,13.015,0,0,1,16,40h1.3l-4.175,7.514a1,1,0,0,0,1.038,1.472l5.362-.893L25,56.3V61H3Zm46,8H27V56.3l5.474-8.21,5.362.893a1,1,0,0,0,1.038-1.472L34.7,40H36A13.015,13.015,0,0,1,49,53Zm12,0H51V53A15.017,15.017,0,0,0,36,38H32V35.376A12,12,0,0,0,38,25a4,4,0,0,0,1.474-7.711l0-.005A14.5,14.5,0,0,0,40.99,11H61Z"/><path d="M51,29a8,8,0,1,0-8-8A8.009,8.009,0,0,0,51,29Zm1-2.09V22h4.91A6.008,6.008,0,0,1,52,26.91ZM56.91,20h-5.5l-3.885-3.885A5.984,5.984,0,0,1,56.91,20ZM46.115,17.529,50,21.414v5.5a5.984,5.984,0,0,1-3.885-9.381Z"/><path d="M58,31H42a1,1,0,0,0-1,1v4a1,1,0,0,0,1,1H58a1,1,0,0,0,1-1V32A1,1,0,0,0,58,31Zm-1,4H43V33H57Z"/><rect x="51" y="39" width="8" height="2"/><rect x="51" y="43" width="8" height="2"/></svg>
