<?xml version="1.0" encoding="UTF-8"?>
<svg xmlns="http://www.w3.org/2000/svg" id="Icons" viewBox="0 0 60 60" width="512" height="512"><path d="M57,0H17a3,3,0,0,0-3,3V4.814a6.033,6.033,0,0,0-2.955,4.643A12.948,12.948,0,0,0,4.417,24.241,3.982,3.982,0,0,0,4,26a3.937,3.937,0,0,0,3.035,3.844A10.019,10.019,0,0,0,12,37.631v2.42A13.009,13.009,0,0,0,0,53v3a4,4,0,0,0,4,4H30a4,4,0,0,0,4-4V53a12.9,12.9,0,0,0-1.479-6H47a2,2,0,0,0,2-2,4,4,0,0,0-3.8-3.98A4.133,4.133,0,0,1,42.11,38H57a3,3,0,0,0,3-3V3A3,3,0,0,0,57,0ZM17,2H57a1,1,0,0,1,1,1V31H26.835a9.762,9.762,0,0,0,.18-1.129,3.983,3.983,0,0,0,2.568-5.63,12.949,12.949,0,0,0-6.61-14.775A6.006,6.006,0,0,0,17,4a6.075,6.075,0,0,0-1,.09V3A1,1,0,0,1,17,2ZM15.392,6.33A4.081,4.081,0,0,1,17,6a4,4,0,0,1,3.718,2.548,12.877,12.877,0,0,0-7.433,0A4.026,4.026,0,0,1,15.392,6.33ZM17,10A11.013,11.013,0,0,1,28,21a11.156,11.156,0,0,1-.105,1.483,4.207,4.207,0,0,0-.985-.4c-.528-2.521-3.115-3.1-5.194-3.559s-3.36-.822-3.647-1.926a2.026,2.026,0,0,0-2.114-1.559c-4.885.356-8.464,3.211-8.948,7.086a3.915,3.915,0,0,0-.9.366A10.969,10.969,0,0,1,17,10ZM9.028,29.678a1.988,1.988,0,0,0-1.537-1.742,2,2,0,0,1,.01-3.874A2,2,0,0,0,9.035,22.37c.336-2.954,3.11-5.05,7.06-5.34a.129.129,0,0,1,.038.069c.615,2.369,3.024,2.9,5.149,3.377s3.424.841,3.67,2.015a2.025,2.025,0,0,0,1.524,1.565,2,2,0,0,1,.034,3.88,1.988,1.988,0,0,0-1.538,1.742,8,8,0,0,1-15.944,0ZM28.819,41.016a3.96,3.96,0,0,0-1.76.491A12.909,12.909,0,0,0,22,40.051V38h9.888A4.192,4.192,0,0,1,28.819,41.016ZM17,39a9.846,9.846,0,0,0,3-.475V41a3,3,0,0,1-6,0V38.525A9.841,9.841,0,0,0,17,39ZM32,56a2,2,0,0,1-2,2H4a2,2,0,0,1-2-2V53A11.008,11.008,0,0,1,12.114,42.045a5,5,0,0,0,9.772,0A11.008,11.008,0,0,1,32,53ZM47,45H31.226A13.1,13.1,0,0,0,29.3,43H45A2,2,0,0,1,47,45Zm-5.544-4H32.544a5.724,5.724,0,0,0,1.376-3h6.16A5.724,5.724,0,0,0,41.456,41ZM57,36H24.113a10.172,10.172,0,0,0,2.065-3H58v2A1,1,0,0,1,57,36Z"/><path d="M50,16a6,6,0,1,0-6-6A6.006,6.006,0,0,0,50,16Zm0-2a3.947,3.947,0,0,1-2.019-.567L50.414,11h3.444A4,4,0,0,1,50,14Zm3.858-5H51V6.142A3.991,3.991,0,0,1,53.858,9ZM49,6.142V9.586l-2.433,2.433A3.947,3.947,0,0,1,46,10,4,4,0,0,1,49,6.142Z"/><path d="M35,23a1,1,0,0,0-1,1v4a1,1,0,0,0,2,0V24A1,1,0,0,0,35,23Z"/><path d="M39,20a1,1,0,0,0-1,1v7a1,1,0,0,0,2,0V21A1,1,0,0,0,39,20Z"/><path d="M43,29a1,1,0,0,0,1-1V25a1,1,0,0,0-2,0v3A1,1,0,0,0,43,29Z"/><path d="M47,22a1,1,0,0,0-1,1v5a1,1,0,0,0,2,0V23A1,1,0,0,0,47,22Z"/><path d="M51,20a1,1,0,0,0-1,1v7a1,1,0,0,0,2,0V21A1,1,0,0,0,51,20Z"/><path d="M55,18a1,1,0,0,0-1,1v9a1,1,0,0,0,2,0V19A1,1,0,0,0,55,18Z"/><path d="M27.99,10H40a1,1,0,0,0,0-2H27.99a1,1,0,1,0,0,2Z"/><path d="M35,12H31a1,1,0,0,0,0,2h4a1,1,0,0,0,0-2Z"/></svg>
