<svg id="Layer_1" height="512" viewBox="0 0 512 512" width="512" xmlns="http://www.w3.org/2000/svg" data-name="Layer 1"><path d="m255.556 245.3a85.348 85.348 0 0 0 23.2-3.222l4.2 15.71-26.227 17.461-27.472-18.291 3.93-14.658a85.141 85.141 0 0 0 22.367 3zm-31.807 166.651-31.368-23.707 31.368-23.7a8 8 0 1 0 -9.648-12.757l-39.813 30.081a8.01 8.01 0 0 0 0 12.766l39.812 30.079a8 8 0 1 0 9.648-12.762zm95.87-23.707-31.368 23.707a8 8 0 0 0 9.648 12.762l39.808-30.081a7.989 7.989 0 0 0 0-12.766l-39.807-30.081a8 8 0 1 0 -9.648 12.757l31.368 23.7zm-49.119-50.032a8 8 0 0 1 14.512 6.761l-43.512 93.313a8 8 0 0 1 -14.507-6.766zm-81.318-199.581c.458.014.915.014 1.377.014 43.541 0 75.089-15.682 93.842-46.649 3.94-3.8 7.317-5.383 10.039-4.695 3.648.934 13.352 7.2 24.528 45.451a6.547 6.547 0 0 0 .3.84 69.07 69.07 0 0 1 -105.82 81.4c-23.112-17.776-32.661-48.518-24.268-76.362zm-27.094 17.994a14.716 14.716 0 0 1 9.629-13.791 87.146 87.146 0 0 0 -.807 27.269 14.746 14.746 0 0 1 -8.822-13.478zm177.78 14.7a84.739 84.739 0 0 0 -1.26-29.42h1a14.711 14.711 0 0 1 .259 29.42zm-38.668 99.937c-3.213-.769-5.543-1.279-7.2-1.609l-22.834 15.2 13.823 9.2 16.21-22.791zm93.007 62.35c-.467 19.5-.732 39.243-.76 58.793h-6.127v-69.95a22.686 22.686 0 0 0 -22.66-22.669h-64.11l16.88-23.74c.142-.194.25-.382.368-.571 8.974 2.368 20.749 5.567 36.2 9.879 31.232 8.718 38.2 13.861 40.21 48.258zm-253.53 129.48v-140.637a6.675 6.675 0 0 1 6.662-6.671h217.321a6.675 6.675 0 0 1 6.662 6.671v140.637zm247.2 26.231a6.674 6.674 0 0 1 -6.661 6.671h-250.436a6.674 6.674 0 0 1 -6.661-6.671v-10.223h263.762v10.228zm-269.33-96.918c-.028-19.55-.287-39.289-.755-58.793 2-34.4 8.978-39.54 40.21-48.258 16.149-4.51 28.279-7.8 37.389-10.19l17.509 24.622h-65.56a22.683 22.683 0 0 0 -22.66 22.669v69.95zm138.184-97.95 8 5.331h-16zm-37.591-25.014c-1.51.264-3.769.74-7.1 1.524l16.418 23.088 13.832-9.2-23.15-15.413zm-65.441.505c-18.1 5.048-30.2 9.78-38.478 19.008-8.275 9.209-12.162 21.98-13.422 44.068-.009.222-.019.43-.009.652.542 22.14.787 44.587.759 66.719a7.974 7.974 0 0 0 8 8.01h14.13v54.689h-8.563a8 8 0 0 0 -8 8v18.23a22.694 22.694 0 0 0 22.664 22.678h250.44a22.7 22.7 0 0 0 22.659-22.674v-18.23a8 8 0 0 0 -8-8h-8.559v-54.696h14.129a7.974 7.974 0 0 0 8-8.01c-.033-22.132.217-44.579.759-66.719.01-.222 0-.43-.009-.652-1.264-22.088-5.152-34.859-13.422-44.068-8.28-9.228-20.381-13.96-38.479-19.008-36.421-10.172-52.239-14.111-59.712-15.673l-4.827-18.031a84.662 84.662 0 0 0 42.39-48.9h3.458a30.7 30.7 0 0 0 20.97-53.136 7.775 7.775 0 0 0 .51-1.552c1.377-6.228 2.571-12.748 3.552-19.381.3-2 .59-3.878.859-5.647 2.562-16.484 4.1-26.425-5.779-45.017a117.986 117.986 0 0 0 -215.87 17.359 8.006 8.006 0 0 0 -.321 1.288c-3.038 18.541-.269 37.931 8.214 57.651a30.684 30.684 0 0 0 23.158 48.372 84.8 84.8 0 0 0 43.239 49.358l-4.732 17.639c-7.467 1.562-23.286 5.501-59.707 15.673z" fill-rule="evenodd"/></svg>