<svg id="Layer_1" height="512" viewBox="0 0 512 512" width="512" xmlns="http://www.w3.org/2000/svg"><g><path d="m256 43c-49.7 0-90.1 40.4-90.1 90.1s40.4 90.1 90.1 90.1 90.1-40.4 90.1-90.1-40.4-90.1-90.1-90.1zm-41 151.3c2.1-20.9 19.6-37.3 41-37.3s38.9 16.4 41 37.3c-11.7 7.9-25.8 12.5-41 12.5s-29.3-4.6-41-12.5zm24.4-70.3c0-9.2 7.5-16.6 16.6-16.6 9.2 0 16.6 7.5 16.6 16.6s-7.5 16.6-16.6 16.6c-9.2.1-16.6-7.4-16.6-16.6zm71.9 57.7c-4.8-15.8-16.2-28.7-31-35.6 5.3-5.9 8.6-13.6 8.6-22.1 0-18.2-14.8-33-33-33s-33 14.8-33 33c0 8.5 3.3 16.2 8.6 22.1-14.8 6.9-26.2 19.8-31 35.6-11.4-13-18.4-30-18.4-48.6 0-40.7 33.1-73.7 73.7-73.7s73.7 33.1 73.7 73.7c.2 18.6-6.8 35.6-18.2 48.6z"/><path d="m92.1 288.8c-49.7 0-90.1 40.4-90.1 90.1s40.4 90.1 90.1 90.1 90.1-40.4 90.1-90.1-40.4-90.1-90.1-90.1zm-41 151.3c2.1-20.9 19.6-37.3 41-37.3s38.9 16.4 41 37.3c-11.7 7.9-25.8 12.5-41 12.5s-29.2-4.6-41-12.5zm24.4-70.2c0-9.2 7.5-16.6 16.6-16.6s16.6 7.5 16.6 16.6-7.5 16.6-16.6 16.6-16.6-7.5-16.6-16.6zm71.9 57.6c-4.8-15.8-16.2-28.7-31-35.6 5.3-5.9 8.6-13.6 8.6-22.1 0-18.2-14.8-33-33-33s-33 14.8-33 33c0 8.5 3.3 16.2 8.6 22.1-14.8 6.9-26.2 19.8-31 35.6-11.4-13-18.4-30-18.4-48.6 0-40.7 33.1-73.7 73.7-73.7s73.7 33.1 73.7 73.7c.3 18.6-6.7 35.6-18.2 48.6z"/><path d="m419.9 288.8c-49.7 0-90.1 40.4-90.1 90.1s40.4 90.1 90.1 90.1 90.1-40.4 90.1-90.1-40.4-90.1-90.1-90.1zm-41 151.3c2.1-20.9 19.6-37.3 41-37.3s38.9 16.4 41 37.3c-11.7 7.9-25.8 12.5-41 12.5s-29.3-4.6-41-12.5zm24.4-70.2c0-9.2 7.5-16.6 16.6-16.6 9.2 0 16.6 7.5 16.6 16.6s-7.5 16.6-16.6 16.6c-9.2 0-16.6-7.5-16.6-16.6zm71.9 57.6c-4.8-15.8-16.2-28.7-31-35.6 5.3-5.9 8.6-13.6 8.6-22.1 0-18.2-14.8-33-33-33s-33 14.8-33 33c0 8.5 3.3 16.2 8.6 22.1-14.8 6.9-26.2 19.8-31 35.6-11.4-13-18.4-30-18.4-48.6 0-40.7 33.1-73.7 73.7-73.7s73.7 33.1 73.7 73.7c.2 18.6-6.8 35.6-18.2 48.6z"/><path d="m264.2 239.6h-16.4v69l-53.2 30.4 8.1 14.2 53.3-30.4 53.3 30.4 8.1-14.2-53.2-30.4z"/></g></svg>